<svg width="28" height="28" fill="none" xmlns="http://www.w3.org/2000/svg"><path d="M22.447 6.51h-.467l-3.943-3.943a.824.824 0 0 0-1.155 0 .824.824 0 0 0 0 1.155L19.67 6.51H8.33l2.788-2.788a.824.824 0 0 0 0-1.155.824.824 0 0 0-1.155 0L6.032 6.51h-.467c-1.05 0-3.232 0-3.232 2.987 0 1.131.234 1.878.724 2.368.28.292.618.443.98.525.338.082.7.093 1.05.093h17.826c.362 0 .7-.023 1.027-.093.98-.233 1.727-.933 1.727-2.893 0-2.987-2.182-2.987-3.22-2.987ZM22.225 14H5.682c-.724 0-1.272.642-1.155 1.353l.98 5.997c.326 2.007 1.201 4.317 5.086 4.317h6.545c3.932 0 4.632-1.972 5.052-4.177l1.178-6.102A1.163 1.163 0 0 0 22.225 14Zm-9.847 7.525a.812.812 0 1 1-1.622 0v-3.85c0-.443.362-.817.817-.817.444 0 .805.374.805.817v3.85Zm4.994 0a.812.812 0 0 1-.817.817.82.82 0 0 1-.817-.817v-3.85c0-.443.374-.817.817-.817a.82.82 0 0 1 .817.817v3.85Z" fill="#ABB5C2"/></svg>