<svg width="21" height="21" fill="none" xmlns="http://www.w3.org/2000/svg"><path d="M4.541 5.583a.671.671 0 0 1-.463-.193.66.66 0 0 1 0-.927l3.176-3.177a.66.66 0 0 1 .927 0 .66.66 0 0 1 0 .928L5.005 5.39a.687.687 0 0 1-.464.193ZM16.459 5.583a.649.649 0 0 1-.464-.193l-3.176-3.176a.66.66 0 0 1 0-.928.66.66 0 0 1 .927 0l3.176 3.177a.66.66 0 0 1 0 .927.671.671 0 0 1-.463.193Z" fill="#fff"/><path d="M17.684 9.275H3.5c-.612.009-1.313.009-1.82-.499-.402-.394-.586-1.006-.586-1.907 0-2.407 1.758-2.407 2.598-2.407h13.616c.84 0 2.598 0 2.598 2.407 0 .91-.183 1.513-.586 1.907-.455.455-1.067.499-1.636.499ZM3.692 7.962H17.51c.393.01.761.01.883-.113.062-.062.193-.272.193-.98 0-.99-.245-1.094-1.286-1.094H3.692c-1.04 0-1.286.105-1.286 1.094 0 .708.14.918.193.98.122.113.498.113.883.113h.21ZM8.54 16.012a.661.661 0 0 1-.656-.656V12.25c0-.359.297-.656.656-.656.359 0 .656.297.656.656v3.106a.655.655 0 0 1-.656.656ZM12.565 16.012a.661.661 0 0 1-.656-.656V12.25a.66.66 0 0 1 .656-.656c.359 0 .656.297.656.656v3.106a.655.655 0 0 1-.656.656Z" fill="#fff"/><path d="M13.029 19.906H7.752c-3.132 0-3.832-1.864-4.103-3.482l-1.234-7.57a.654.654 0 0 1 .542-.752.654.654 0 0 1 .753.543l1.234 7.56c.253 1.549.778 2.389 2.808 2.389h5.277c2.248 0 2.502-.788 2.79-2.31l1.47-7.657a.645.645 0 0 1 .77-.516c.36.07.587.411.517.77l-1.47 7.656c-.341 1.777-.91 3.37-4.077 3.37Z" fill="#fff"/></svg>