<svg width="21" height="21" fill="none" xmlns="http://www.w3.org/2000/svg"><path d="M10.981 18.016c-.691 0-1.452-.245-2.213-.726l-2.556-1.601a1.133 1.133 0 0 0-.577-.166h-1.26c-2.118 0-3.281-1.164-3.281-3.282v-3.5c0-2.117 1.163-3.281 3.281-3.281h1.251c.201 0 .403-.061.578-.166l2.555-1.601c1.277-.797 2.52-.945 3.5-.403.98.543 1.514 1.671 1.514 3.185v8.024c0 1.505-.543 2.642-1.514 3.185a2.487 2.487 0 0 1-1.278.332ZM4.375 6.781c-1.382 0-1.969.587-1.969 1.969v3.5c0 1.383.587 1.969 1.969 1.969h1.251c.455 0 .893.122 1.278.367l2.555 1.601c.84.525 1.636.665 2.17.368.534-.297.84-1.041.84-2.03V6.484c0-.998-.306-1.741-.84-2.03-.534-.298-1.33-.166-2.17.367L6.895 6.414a2.33 2.33 0 0 1-1.269.367H4.375ZM15.75 14.656a.657.657 0 0 1-.525-1.05 5.198 5.198 0 0 0 0-6.212.656.656 0 0 1 1.05-.788 6.537 6.537 0 0 1 0 7.788.647.647 0 0 1-.525.262Z" fill="#fff"/><path d="M17.351 16.844a.657.657 0 0 1-.525-1.05c2.337-3.115 2.337-7.473 0-10.588a.656.656 0 0 1 1.05-.787c2.687 3.578 2.687 8.584 0 12.162a.635.635 0 0 1-.525.263Z" fill="#fff"/></svg>