<svg width="21" height="21" fill="none" xmlns="http://www.w3.org/2000/svg"><path d="M8.015 10.168h-.07a.472.472 0 0 0-.158 0c-2.537-.08-4.454-2.074-4.454-4.533a4.548 4.548 0 0 1 4.542-4.541 4.548 4.548 0 0 1 4.541 4.541c-.009 2.459-1.934 4.454-4.375 4.533h-.026Zm-.14-7.762a3.238 3.238 0 0 0-3.229 3.229 3.206 3.206 0 0 0 3.106 3.22c.053-.009.167-.009.28 0a3.223 3.223 0 0 0 3.072-3.22 3.238 3.238 0 0 0-3.23-3.229ZM14.472 10.281c-.026 0-.052 0-.079-.008-.358.034-.726-.22-.76-.578-.036-.359.183-.683.542-.726.105-.009.218-.009.315-.009a2.403 2.403 0 0 0 2.275-2.406 2.405 2.405 0 0 0-2.407-2.407.648.648 0 0 1-.656-.647c0-.359.298-.656.656-.656a3.727 3.727 0 0 1 3.72 3.719 3.71 3.71 0 0 1-3.58 3.718h-.026ZM8.023 19.731c-1.715 0-3.438-.437-4.742-1.312C2.065 17.614 1.4 16.51 1.4 15.312c0-1.198.665-2.31 1.88-3.123 2.626-1.742 6.878-1.742 9.486 0 1.207.805 1.881 1.907 1.881 3.106 0 1.199-.665 2.31-1.881 3.124-1.313.875-3.028 1.312-4.743 1.312Zm-4.016-6.44c-.84.56-1.295 1.278-1.295 2.03 0 .744.464 1.461 1.295 2.013 2.179 1.461 5.854 1.461 8.033 0 .84-.56 1.295-1.278 1.295-2.03 0-.744-.464-1.462-1.295-2.013-2.18-1.452-5.854-1.452-8.033 0ZM16.047 18.156a.646.646 0 0 1-.639-.525.665.665 0 0 1 .508-.779c.551-.113 1.059-.332 1.452-.638.5-.376.77-.849.77-1.348 0-.498-.27-.971-.76-1.338-.386-.298-.867-.508-1.436-.64a.662.662 0 0 1-.499-.787.662.662 0 0 1 .788-.499c.752.167 1.409.464 1.942.875.814.613 1.278 1.48 1.278 2.39 0 .91-.473 1.775-1.286 2.397a4.74 4.74 0 0 1-1.978.875c-.052.017-.096.017-.14.017Z" fill="#fff"/></svg>