<svg width="20" height="20" fill="none" xmlns="http://www.w3.org/2000/svg"><path d="M16.642 8.333H3.308V15c0 2.5.834 3.333 3.334 3.333h6.666c2.5 0 3.334-.833 3.334-3.333V8.333ZM17.917 5.833v.834c0 .916-.442 1.666-1.667 1.666H3.75c-1.275 0-1.667-.75-1.667-1.666v-.834c0-.916.392-1.666 1.667-1.666h12.5c1.225 0 1.667.75 1.667 1.666ZM9.7 4.167H5.1a.78.78 0 0 1 .025-1.084L6.308 1.9a.8.8 0 0 1 1.125 0L9.7 4.167ZM14.892 4.167h-4.6L12.558 1.9a.8.8 0 0 1 1.125 0l1.184 1.183c.3.3.308.775.025 1.084Z" stroke="#1B3F67" stroke-width="1.5" stroke-miterlimit="10" stroke-linecap="round" stroke-linejoin="round"/><path d="M7.45 8.333v4.284a.835.835 0 0 0 1.292.7l.783-.517a.833.833 0 0 1 .917 0l.741.5a.83.83 0 0 0 1.292-.692V8.333H7.45Z" stroke="#1B3F67" stroke-width="1.5" stroke-miterlimit="10" stroke-linecap="round" stroke-linejoin="round"/></svg>