<svg width="21" height="21" fill="none" xmlns="http://www.w3.org/2000/svg"><path d="M1.75 19.25h17.5" stroke="#fff" stroke-width="1.5" stroke-miterlimit="10" stroke-linecap="round" stroke-linejoin="round"/><path d="m2.581 19.25.044-10.526c0-.534.254-1.041.674-1.374l6.125-4.769a1.76 1.76 0 0 1 2.152 0l6.125 4.76c.43.333.674.84.674 1.383V19.25" stroke="#fff" stroke-width="1.5" stroke-miterlimit="10" stroke-linejoin="round"/><path d="M11.375 14.875h-1.75a1.31 1.31 0 0 0-1.313 1.313v3.062h4.376v-3.063a1.31 1.31 0 0 0-1.313-1.312ZM8.313 12.031h-1.75a.878.878 0 0 1-.875-.875V9.844c0-.481.393-.875.875-.875h1.75c.48 0 .874.394.874.875v1.312a.878.878 0 0 1-.874.875ZM14.438 12.031h-1.75a.878.878 0 0 1-.876-.875V9.844c0-.481.394-.875.876-.875h1.75c.48 0 .874.394.874.875v1.312a.878.878 0 0 1-.874.875Z" stroke="#fff" stroke-width="1.5" stroke-miterlimit="10" stroke-linejoin="round"/><path d="M16.625 6.125 16.599 3.5h-3.85" stroke="#fff" stroke-width="1.5" stroke-miterlimit="10" stroke-linecap="round" stroke-linejoin="round"/></svg>