<svg width="28" height="28" fill="none" xmlns="http://www.w3.org/2000/svg"><path d="M17.803 25.667a.73.73 0 0 1-.221-.035 13.068 13.068 0 0 0-7.152 0 .814.814 0 0 1-1.003-.56.805.805 0 0 1 .56-1.004 14.744 14.744 0 0 1 8.05 0 .81.81 0 0 1 .56 1.004.844.844 0 0 1-.794.595ZM22.412 7.42c-1.214-2.45-3.559-4.258-6.277-4.853-2.847-.63-5.763.046-7.992 1.843a9.302 9.302 0 0 0-3.511 7.315c0 3.022 1.808 6.183 4.538 8.015v.968c-.012.327-.023.829.373 1.237.409.42 1.015.467 1.494.467h5.985c.63 0 1.108-.175 1.435-.502.443-.455.431-1.038.42-1.353v-.817c3.616-2.438 5.891-7.583 3.535-12.32Zm-6.405 6.137-1.249 2.17a.882.882 0 0 1-.758.443.8.8 0 0 1-.432-.117.88.88 0 0 1-.326-1.19l.991-1.726h-.98c-.583 0-1.061-.257-1.318-.689-.257-.443-.233-.98.058-1.493l1.249-2.17a.88.88 0 0 1 1.19-.327.88.88 0 0 1 .326 1.19l-.991 1.727h.98c.583 0 1.061.257 1.318.688.257.444.233.992-.058 1.494Z" fill="#fff"/></svg>