<svg width="22" height="22" fill="none" xmlns="http://www.w3.org/2000/svg"><path d="m18.064 17.676-2.137-4.264-2.137 4.264M14.18 16.917h3.515" stroke="#1B3F67" stroke-width="1.5" stroke-linecap="round" stroke-linejoin="round"/><path d="M15.927 21.001a5.074 5.074 0 1 1 0-10.147 5.074 5.074 0 0 1 0 10.147v0ZM4.043 1.028h3.914c2.068 0 3.067.998 3.016 3.016V7.96a2.586 2.586 0 0 1-3.016 3.016H4.043c-2.018.04-3.016-.959-3.016-3.027V4.034a2.657 2.657 0 0 1 3.016-3.006v0ZM8.027 4.874H3.973M5.99 4.194v.677" stroke="#1B3F67" stroke-width="1.5" stroke-linecap="round" stroke-linejoin="round"/><path d="M7.008 4.863A3.11 3.11 0 0 1 3.962 8.03" stroke="#1B3F67" stroke-width="1.5" stroke-linecap="round" stroke-linejoin="round"/><path d="M8.028 8.029A2.32 2.32 0 0 1 6.18 7.02M1.027 14.011a6.985 6.985 0 0 0 6.99 6.99l-1.048-1.75M21 8.018a6.986 6.986 0 0 0-6.99-6.99l1.049 1.748" stroke="#1B3F67" stroke-width="1.5" stroke-linecap="round" stroke-linejoin="round"/></svg>