<svg width="46" height="46" fill="none" xmlns="http://www.w3.org/2000/svg"><g clip-path="url(#a)"><path d="M23.001 45.768c12.574 0 22.767-10.193 22.767-22.767S35.575.234 23 .234.234 10.427.234 23.001s10.193 22.767 22.767 22.767Z" fill="#0F6EFF"/><path d="m21.848 31.257-1.172-1.184a18142.87 18142.87 0 0 0-5.761-5.745c-.099-.098-.09-.16-.029-.267a38.87 38.87 0 0 1 3.064-4.421 34.695 34.695 0 0 1 3.453-3.825 26.939 26.939 0 0 1 6.328-4.592c.202-.106.413-.195.61-.31a.235.235 0 0 1 .32.052c.282.277.575.542.854.818 1.875 1.861 3.744 3.722 5.607 5.583a.157.157 0 0 1 .042.216 26.186 26.186 0 0 1-3.661 5.649 34.656 34.656 0 0 1-3.516 3.558 45.176 45.176 0 0 1-5.457 4.083c-.197.127-.405.235-.607.352l-.075.033Zm11.24-13.945c0-.51-.36-.794-.744-.703a.87.87 0 0 0-.506.47 29.19 29.19 0 0 1-2.403 3.499 27.742 27.742 0 0 1-2.829 2.99c-.333.305-.68.596-1.008.908a.596.596 0 0 0-.044.836.572.572 0 0 0 .846.092 8.87 8.87 0 0 0 .668-.544 30.771 30.771 0 0 0 3.253-3.38 25.111 25.111 0 0 0 2.546-3.678 4.77 4.77 0 0 0 .22-.49ZM16.574 31.997c-.037.882-.373 1.617-1.134 2.082-.634.386-1.293.73-1.972 1.031-1.15.511-2.322.975-3.49 1.456-.151.06-.308.106-.469.138-.192.042-.295-.066-.234-.25.202-.573.391-1.147.63-1.703.47-1.12.987-2.231 1.498-3.34.207-.486.499-.93.863-1.312.42-.415.985-.65 1.575-.654.576-.051 1.15.1 1.627.429a2.578 2.578 0 0 1 1.106 2.123ZM17.669 17.96c-.139.17-.275.344-.413.517a50.596 50.596 0 0 0-3.216 4.498c-.213.338-.22.333-.581.17a5.243 5.243 0 0 0-2.11-.448 8.622 8.622 0 0 0-2.287.234c.16-.197.288-.368.426-.527a14.6 14.6 0 0 1 3.094-2.792 10.995 10.995 0 0 1 3.851-1.568c.397-.078.807-.09 1.21-.134l.026.05ZM27.963 28.502c.054.303.041.615-.037.912a10.983 10.983 0 0 1-2.703 5.462 15.953 15.953 0 0 1-1.98 1.92l-.15.112c.037-.3.075-.574.105-.851.117-1.057.162-2.11-.206-3.139a3.981 3.981 0 0 0-.202-.485c-.072-.136-.035-.197.082-.276.832-.553 1.672-1.095 2.483-1.676.81-.582 1.64-1.245 2.463-1.875.044-.033.09-.059.145-.104ZM29.878 10.283s3.37-1.406 6.59-1.156a.49.49 0 0 1 .468.47 18.08 18.08 0 0 1-1.172 6.623l-5.886-5.937Z" fill="#fff"/></g><defs><clipPath id="a"><path fill="#fff" d="M0 0h46v46H0z"/></clipPath></defs></svg>