<svg width="13" height="13" fill="none" xmlns="http://www.w3.org/2000/svg"><path fill-rule="evenodd" clip-rule="evenodd" d="M11.542 5.08H8.86c.07-.887.07-1.778 0-2.664A3.029 3.029 0 0 0 8.07.756a.759.759 0 0 0-.97.106s.035 1.438.035 1.767a3.617 3.617 0 0 1-.961 1.563c-.198.182-1.5.693-1.79.888v6.215l5.546-.01c1.03 0 1.35-1.242.687-1.358l.048-.142c.66-.071 1.196-1.172.394-1.403l.048-.133c.627-.071 1.228-1.146.394-1.412l.048-.133c.835-.142 1.172-1.474.302-1.474l-.31-.15ZM.807 5.967h2.684v6.216H.807V5.967Z" fill="#000"/></svg>